<svg width="299" height="341" viewBox="0 0 299 341" fill="none" xmlns="http://www.w3.org/2000/svg">
<path d="M219.884 267.942C176.22 307.761 109.448 305.637 70.7446 263.198C32.0414 220.758 36.0629 154.073 79.727 114.254C123.391 74.4338 190.163 76.5579 228.866 118.998C267.569 161.438 263.548 228.122 219.884 267.942Z" fill="#F472B7"/>
<path d="M105.344 171.984C107.96 174.853 109.005 171.478 111.957 168.787C114.909 166.095 118.654 165.11 116.033 162.236C113.412 159.362 108.903 159.223 105.951 161.915C102.995 164.602 102.723 169.11 105.344 171.984Z" fill="white"/>
<path d="M84.9193 190.61C87.5356 193.479 88.5808 190.105 91.5324 187.413C94.484 184.721 98.2293 183.736 95.6084 180.862C92.9874 177.988 88.4781 177.85 85.5265 180.541C82.5703 183.228 82.2984 187.736 84.9193 190.61Z" fill="white"/>
<path d="M102.157 199.316C107.268 204.92 116.087 205.201 121.853 199.942C127.619 194.684 128.15 185.876 123.039 180.272C117.928 174.667 118.719 184.925 112.953 190.183C107.187 195.442 97.0457 193.711 102.157 199.316Z" fill="white"/>
<g clip-path="url(#clip0_1_3)">
<path d="M65.7073 126.932C100.777 126.932 129.207 98.5023 129.207 63.4322C129.207 28.3622 100.777 -0.067749 65.7073 -0.067749C30.6372 -0.067749 2.20731 28.3622 2.20731 63.4322C2.20731 98.5023 30.6372 126.932 65.7073 126.932Z" fill="#FAD34F"/>
<path d="M82.8142 83.1596C82.8142 87.7062 79.127 83.1596 74.5762 83.1596C70.0295 83.1596 66.3381 87.7062 66.3381 83.1596C66.3381 78.613 70.0253 74.9215 74.5762 74.9215C79.127 74.9215 82.8142 78.6087 82.8142 83.1596Z" fill="white"/>
<path d="M108.752 83.1596C108.752 87.7062 105.065 83.1596 100.514 83.1596C95.9672 83.1596 92.2757 87.7062 92.2757 83.1596C92.2757 78.613 95.963 74.9215 100.514 74.9215C105.065 74.9215 108.752 78.6087 108.752 83.1596Z" fill="white"/>
<path d="M100.497 100.614C100.497 108.979 93.7151 115.756 85.3543 115.756C76.9935 115.756 70.2117 108.974 70.2117 100.614C70.2117 92.2528 76.9935 101.198 85.3543 101.198C93.7151 101.198 100.497 92.2528 100.497 100.614Z" fill="white"/>
</g>
<defs>
<clipPath id="clip0_1_3">
<rect width="127" height="127" fill="white" transform="translate(2)"/>
</clipPath>
</defs>
</svg>
